HIERARCHY
ROOT Hips
{
	OFFSET 0.000000 0.000000 0.000000
	CHANNELS 6 Xposition Yposition Zposition Zrotation Yrotation Xrotation 
	JOINT LeftUpLeg_virtual
	{
		OFFSET 0.000000 0.000000 0.000000
		CHANNELS 3 Zrotation Yrotation Xrotation
		JOINT LeftUpLeg
		{
			OFFSET 10.205400 -3.823500 0.155100
			CHANNELS 3 Zrotation Yrotation Xrotation
			JOINT LeftLeg
			{
				OFFSET 0.708757 -12.982077 0.567790
				CHANNELS 3 Zrotation Yrotation Xrotation
				JOINT LeftFoot
				{
					OFFSET -0.708756 -10.717838 -2.184338
					CHANNELS 3 Zrotation Yrotation Xrotation
					JOINT LeftToeBase
					{
						OFFSET 0.108149 -7.191104 7.560241
						CHANNELS 3 Zrotation Yrotation Xrotation
						End Site
						{
							OFFSET 0.000000 0.000000 0.000000
						}
					}
				}
			}
		}
	}
	JOINT RightUpLeg_virtual
	{
		OFFSET 0.000000 0.000000 0.000000
		CHANNELS 3 Zrotation Yrotation Xrotation
		JOINT RightUpLeg
		{
			OFFSET -10.205400 -3.823500 0.005500
			CHANNELS 3 Zrotation Yrotation Xrotation
			JOINT RightLeg
			{
				OFFSET -0.708756 -12.982134 0.610632
				CHANNELS 3 Zrotation Yrotation Xrotation
				JOINT RightFoot
				{
					OFFSET 0.708754 -10.717769 -1.945823
					CHANNELS 3 Zrotation Yrotation Xrotation
					JOINT RightToeBase
					{
						OFFSET -0.108140 -7.191069 7.372968
						CHANNELS 3 Zrotation Yrotation Xrotation
						End Site
						{
							OFFSET 0.000000 0.000000 0.000000
						}
					}
				}
			}
		}
	}
	JOINT Spine_virtual
	{
		OFFSET 0.000000 0.000000 0.000000
		CHANNELS 3 Zrotation Yrotation Xrotation
		JOINT Spine
		{
			OFFSET 0.000000 6.876099 0.125700
			CHANNELS 3 Zrotation Yrotation Xrotation
			JOINT Spine1
			{
				OFFSET 0.000000 8.022060 0.146608
				CHANNELS 3 Zrotation Yrotation Xrotation
				JOINT Spine2
				{
					OFFSET 0.000000 9.168068 0.167552
					CHANNELS 3 Zrotation Yrotation Xrotation
					JOINT Neck_virtual
					{
						OFFSET 0.000000 0.000000 0.000000
						CHANNELS 3 Zrotation Yrotation Xrotation
						JOINT Neck
						{
							OFFSET 0.000000 10.314075 0.188496
							CHANNELS 3 Zrotation Yrotation Xrotation
							JOINT Head
							{
								OFFSET 0.000000 7.643700 -2.377400
								CHANNELS 3 Zrotation Yrotation Xrotation
								End Site
								{
									OFFSET 0.000000 0.000000 0.000000
								}
							}
						}
					}
					JOINT LeftShoulder_virtual
					{
						OFFSET 0.000000 0.000000 0.000000
						CHANNELS 3 Zrotation Yrotation Xrotation
						JOINT LeftShoulder
						{
							OFFSET 4.392200 8.824978 0.174984
							CHANNELS 3 Zrotation Yrotation Xrotation
							JOINT LeftArm
							{
								OFFSET 8.771219 -2.981674 -0.026999
								CHANNELS 3 Zrotation Yrotation Xrotation
								JOINT LeftForeArm
								{
									OFFSET 8.512804 0.000000 -0.000000
									CHANNELS 3 Zrotation Yrotation Xrotation
									JOINT LeftHand
									{
										OFFSET 18.484802 0.000000 -0.000000
										CHANNELS 3 Zrotation Yrotation Xrotation
										End Site
										{
											OFFSET 0.000000 0.000000 0.000000
										}
									}
								}
							}
						}
					}
					JOINT RightShoulder_virtual
					{
						OFFSET 0.000000 0.000000 0.000000
						CHANNELS 3 Zrotation Yrotation Xrotation
						JOINT RightShoulder
						{
							OFFSET -4.392200 8.824993 0.141379
							CHANNELS 3 Zrotation Yrotation Xrotation
							JOINT RightArm
							{
								OFFSET -8.771282 -2.981682 -0.094208
								CHANNELS 3 Zrotation Yrotation Xrotation
								JOINT RightForeArm
								{
									OFFSET -8.494598 0.000000 0.000000
									CHANNELS 3 Zrotation Yrotation Xrotation
									JOINT RightHand
									{
										OFFSET -18.483803 0.000000 0.000001
										CHANNELS 3 Zrotation Yrotation Xrotation
										End Site
										{
											OFFSET 0.000000 0.000000 0.000000
										}
									}
								}
							}
						}
					}
				}
			}
		}
	}
}
MOTION
Frames: 9
Frame Time: 0.033333
-9.455856 22.193922 -2.298575 179.796411 6.397548 -179.773721 3.932571 1.052329 3.701677 3.967916 3.143444 -78.016880 12.810956 0.481651 94.344235 -7.358445 -1.096579 -8.555148 0.000000 0.000000 0.000000 5.233620 3.440146 4.301684 4.747397 -2.417943 -82.292564 0.697590 2.133343 87.355961 -6.032835 0.171772 -2.652710 0.000000 0.000000 0.000000 3.948168 4.015874 4.381260 1.805870 -5.217576 3.391309 0.556152 -3.231915 6.789958 0.029642 0.126800 0.034962 0.345284 -1.960019 10.183029 -1.337192 -5.166646 11.914191 0.000000 0.000000 0.000000 2.218175 -0.916029 6.266406 -9.999189 -17.203478 1.259087 -34.262975 -26.483698 11.675049 -1.513552 -56.275694 -0.081653 0.000000 0.000000 0.000000 -1.883753 0.114734 5.941062 19.903967 16.653830 -2.111078 23.022392 22.743785 -16.963084 -17.002890 75.217233 -15.849961 0.000000 0.000000 0.000000 
-9.512563 22.170034 -2.328828 179.798187 5.253948 -179.766385 3.971330 0.167671 3.766769 3.607827 3.286460 -78.362767 13.043685 0.584345 94.414388 -7.663214 -1.041715 -8.476176 0.000000 0.000000 0.000000 5.200117 2.559815 4.684745 4.804859 -2.877391 -82.797636 0.763108 2.160259 87.592941 -5.870981 0.190949 -2.947321 0.000000 0.000000 0.000000 3.912490 3.665075 4.157992 1.582723 -4.440451 3.169458 0.472975 -3.073675 7.080688 0.029234 -0.016570 0.056200 0.258822 -1.683553 10.478551 -1.264614 -5.632705 11.467741 0.000000 0.000000 0.000000 2.147653 -0.805979 6.580378 -10.435754 -16.398809 1.395474 -37.915241 -22.416659 14.358108 -0.805572 -58.908442 0.245672 0.000000 0.000000 0.000000 -1.923635 0.327109 6.146083 19.318084 15.775833 -2.421311 22.851380 22.038230 -17.884832 -16.636024 75.879030 -15.338233 0.000000 0.000000 0.000000 
-9.599389 22.144733 -2.344223 179.841982 4.293626 -179.781780 3.966588 -0.581531 3.807461 3.312525 3.375209 -78.776957 13.382937 0.706492 94.590716 -7.954652 -1.002984 -8.324065 0.000000 0.000000 0.000000 5.096562 1.734429 4.729793 4.830476 -3.218282 -82.984599 0.839725 2.156124 87.733753 -5.720906 0.282139 -3.065179 0.000000 0.000000 0.000000 3.929611 3.135231 3.991494 1.248280 -3.887917 3.004630 0.383029 -2.771684 7.363232 0.034273 -0.001905 0.070477 0.177604 -1.388647 10.777805 -0.997542 -6.190902 10.898488 0.000000 0.000000 0.000000 2.082885 -0.517170 6.855527 -10.873058 -15.542835 1.683601 -40.956891 -18.392002 16.638431 0.471139 -61.312306 0.126671 0.000000 0.000000 0.000000 -1.977863 0.613466 6.394524 18.634617 15.042274 -2.773585 22.614625 21.268664 -18.766269 -16.296107 76.421047 -15.056655 0.000000 0.000000 0.000000 
-9.703182 22.114149 -2.334689 179.782668 3.406874 -179.773612 3.866546 -1.324017 3.847465 3.067751 3.426065 -79.238240 13.820761 0.827758 94.806721 -8.187153 -0.957144 -8.127470 0.000000 0.000000 0.000000 4.888153 0.968217 4.847989 4.863130 -3.586007 -83.286992 0.911173 2.127376 87.765704 -5.602484 0.454702 -2.934679 0.000000 0.000000 0.000000 3.760305 2.666400 3.889106 0.975051 -3.434197 2.862355 0.354598 -2.496838 7.582579 0.065744 -0.001897 0.028667 0.095562 -1.116988 11.106096 -0.651734 -6.432359 10.265880 0.000000 0.000000 0.000000 1.969230 -0.294184 7.127263 -11.139805 -14.668181 1.866298 -43.462819 -14.494725 18.281240 1.272553 -63.997944 0.645408 0.000000 0.000000 0.000000 -2.030781 0.895880 6.621372 17.897857 14.290304 -3.109428 22.642330 20.522309 -19.519907 -16.043969 77.065441 -14.918132 0.000000 0.000000 0.000000 
-9.795814 22.080612 -2.309561 179.757055 2.652142 -179.763257 3.708491 -1.958815 3.914312 2.929213 3.345750 -79.772293 14.199950 0.791711 94.990542 -8.346972 -0.857951 -7.949666 0.000000 0.000000 0.000000 4.648370 0.366937 4.977380 4.965303 -4.063524 -83.621473 0.942297 1.992649 87.689848 -5.496018 0.707603 -2.748480 0.000000 0.000000 0.000000 3.671906 2.247061 3.867504 0.639617 -3.055934 2.707451 0.303287 -2.268751 7.744620 0.014535 -0.033238 0.070731 0.061603 -0.871983 11.265325 -0.128550 -6.722992 9.416517 0.000000 0.000000 0.000000 1.941672 -0.131725 7.259429 -11.127007 -13.888945 2.105951 -45.324558 -10.912212 19.428386 2.596690 -67.143089 0.804137 0.000000 0.000000 0.000000 -1.979928 1.089313 6.709642 17.160775 13.550829 -3.395691 23.014872 19.915744 -19.845757 -16.021092 78.401044 -15.142922 0.000000 0.000000 0.000000 
-9.870873 22.049244 -2.276019 179.812598 2.036762 -179.709585 3.546728 -2.467306 4.009035 2.803249 3.177373 -80.400800 14.464317 0.625376 95.117631 -8.380917 -0.654730 -7.828224 0.000000 0.000000 0.000000 4.424161 -0.029342 5.244172 5.107820 -4.567564 -84.028696 0.935810 1.753868 87.534700 -5.406782 1.022743 -2.402543 0.000000 0.000000 0.000000 3.553766 1.887670 3.887435 0.322465 -2.740476 2.600084 0.326721 -2.045266 7.849634 0.033851 -0.008538 0.022988 0.037056 -0.583499 11.387262 0.534872 -6.940432 8.336002 0.000000 0.000000 0.000000 1.938711 0.071904 7.398737 -11.111644 -13.158623 2.416862 -46.756238 -7.748173 20.239309 4.046454 -71.175844 0.954904 0.000000 0.000000 0.000000 -2.030419 1.302363 6.794211 16.282847 12.815872 -3.677066 23.791396 19.389473 -19.606598 -17.907588 80.449779 -17.482904 0.000000 0.000000 0.000000 
-9.936978 22.020363 -2.243286 179.747493 1.346744 -179.752356 3.255120 -3.043651 4.214339 2.564265 2.923802 -80.996488 14.665736 0.449683 95.143449 -8.302837 -0.395136 -7.748525 0.000000 0.000000 0.000000 4.166748 -0.454394 5.601992 5.088313 -4.993965 -84.537682 0.949587 1.549033 87.485277 -5.322113 1.372062 -2.222802 0.000000 0.000000 0.000000 3.353537 1.500649 4.246031 -0.007919 -2.582552 2.347550 0.395615 -1.846493 7.822618 0.061472 0.007306 0.039123 0.142548 -0.548457 11.579778 1.388212 -6.999024 7.368053 0.000000 0.000000 0.000000 2.052158 0.210867 7.497522 -10.998121 -12.517473 2.688782 -48.016250 -4.944938 20.761550 5.418399 -75.856204 1.251630 0.000000 0.000000 0.000000 -1.963997 1.485938 6.831473 15.327549 12.111283 -3.958014 25.020192 19.029877 -18.863422 -24.459771 83.538985 -24.623696 0.000000 0.000000 0.000000 
-9.988582 22.009085 -2.227729 179.801547 0.786990 -179.772095 2.968457 -3.377686 4.506829 2.348568 2.763994 -81.597224 14.685139 0.061926 95.131633 -8.111723 -0.074890 -7.817084 0.000000 0.000000 0.000000 3.961925 -0.704823 6.096370 5.146925 -5.430031 -84.986254 0.949424 1.283149 87.350620 -5.262749 1.680472 -2.050208 0.000000 0.000000 0.000000 3.207649 1.370204 4.620386 -0.230128 -2.229139 2.166527 0.536619 -1.780876 7.787592 0.082509 -0.052655 0.036455 0.277193 -0.605076 11.570365 2.283419 -7.006119 6.131406 0.000000 0.000000 0.000000 2.088298 0.197676 7.578874 -10.893429 -11.985805 2.963643 -49.104825 -2.496194 20.960408 7.931693 -80.508410 0.405310 0.000000 0.000000 0.000000 -1.866269 1.471276 6.774420 14.392949 11.401697 -4.184933 26.396962 19.043635 -17.676009 -56.901428 86.823247 -57.798495 0.000000 0.000000 0.000000 
-10.036750 22.017841 -2.229726 179.918466 0.343133 -179.793310 2.645493 -3.532093 4.881773 2.127087 2.676237 -82.185385 14.643586 -0.373925 95.103370 -8.043056 0.053612 -7.966813 0.000000 0.000000 0.000000 3.826762 -0.797149 6.632528 5.190613 -5.836254 -85.332033 0.982024 1.071065 87.205663 -5.249783 1.910370 -2.018245 0.000000 0.000000 0.000000 3.079804 1.190701 5.059761 -0.363769 -2.004049 2.017592 0.734773 -1.710137 7.765093 0.009745 -0.055694 0.016139 0.457880 -0.521485 11.509207 3.255094 -6.881275 4.907140 0.000000 0.000000 0.000000 2.201538 0.224617 7.516327 -10.864550 -11.423750 3.294788 -50.150842 -0.108247 20.939531 12.070692 -84.551260 -2.098001 0.000000 0.000000 0.000000 -1.766431 1.564093 6.668849 13.531775 10.810670 -4.603270 27.868750 19.294523 -16.419085 -142.919550 86.126520 -144.638353 0.000000 0.000000 0.000000 
